<!--?xml version="1.0" standalone="no"?-->

<svg version="1.0" xmlns="http://www.w3.org/2000/svg" width="300.000000pt" height="300.000000pt" viewBox="0 0 300.000000 300.000000" preserveAspectRatio="xMidYMid meet">
<g transform="translate(0.000000,300.000000) scale(0.100000,-0.100000)" fill="#040404" stroke="none">

<path class="node" id="node2" d="M1084 2261 c-105 -30 -180 -86 -240 -178 -34 -52 -64 -143 -64 -195
l0 -28 100 0 c94 0 100 1 100 20 0 32 28 92 58 123 114 120 318 70 362 -89 26
-94 -7 -158 -126 -244 -141 -102 -199 -150 -257 -218 -64 -75 -152 -242 -191
-364 -23 -72 -46 -222 -46 -303 l0 -35 415 0 415 0 0 105 0 105 -305 0 c-212
0 -305 3 -305 11 0 28 57 172 93 234 50 85 166 203 267 270 181 120 243 216
244 380 1 117 -27 192 -102 276 -62 68 -117 103 -203 130 -74 23 -135 23 -215
0z"></path>
<path class="node" id="node3" d="M1978 2210 c-24 -26 -53 -44 -85 -53 l-48 -14 -3 -76 -3 -76 48 -3
48 -3 3 -617 2 -618 105 0 105 0 0 750 0 750 -67 0 c-66 -1 -69 -2 -105 -40z"></path>
</g>
<g transform="translate(0.000000,300.000000) scale(0.100000,-0.100000)" fill="#A2A2A2" stroke="none">





</g>
</svg>